<svg width="150" height="150" viewBox="0 0 150 150" fill="none" xmlns="http://www.w3.org/2000/svg">
<g clip-path="url(#clip0_219_10153)">
<path d="M117.46 0H32.5397C14.5685 0 0 14.5685 0 32.5397V117.46C0 135.431 14.5685 150 32.5397 150H117.46C135.431 150 150 135.431 150 117.46V32.5397C150 14.5685 135.431 0 117.46 0Z" fill="url(#paint0_linear_219_10153)"/>
<path d="M117.46 0H32.5397C14.5685 0 0 14.5685 0 32.5397V117.46C0 135.431 14.5685 150 32.5397 150H117.46C135.431 150 150 135.431 150 117.46V32.5397C150 14.5685 135.431 0 117.46 0Z" fill="url(#paint1_radial_219_10153)"/>
<path fill-rule="evenodd" clip-rule="evenodd" d="M80.091 36.3426C79.9815 36.1564 79.9974 35.9236 80.122 35.7374L85.345 28.0552C85.4863 27.8379 85.5021 27.5741 85.3767 27.3568C85.2514 27.1241 85.0172 26.9999 84.7664 26.9999H82.7339C82.5148 26.9999 82.2958 27.1085 82.1553 27.3102L76.0561 36.3116C75.8998 36.5444 75.6495 36.6686 75.3681 36.6686H74.6017C74.3203 36.6686 74.0701 36.5289 73.9137 36.3116L67.846 27.2948C67.7209 27.093 67.4863 26.9844 67.2674 26.9844H65.2344C64.9841 26.9844 64.7339 27.1241 64.6244 27.3568C64.4994 27.5896 64.5306 27.8535 64.6557 28.0552L69.879 35.7529C70.004 35.9236 70.0197 36.1564 69.9102 36.3426C69.8008 36.5444 69.6131 36.653 69.3942 36.653H61.4029C61.012 36.653 60.7148 36.9634 60.7148 37.3359V39.012C60.7148 39.4 61.0276 39.6949 61.4029 39.6949H88.5982C88.9895 39.6949 89.2863 39.3845 89.2863 39.012V37.3359C89.2863 36.979 89.0204 36.6996 88.6768 36.653C88.645 36.653 88.614 36.653 88.5823 36.653H80.6069C80.3879 36.653 80.1847 36.5444 80.091 36.3426ZM73.9293 46.2286L67.8303 55.2299C67.7052 55.4317 67.4706 55.5402 67.2518 55.5402H65.2187C64.9685 55.5402 64.7339 55.4006 64.6088 55.1833C64.4837 54.966 64.4994 54.6867 64.6401 54.4849L69.8477 46.8028C69.9728 46.6166 69.9884 46.3993 69.879 46.1975C69.7695 46.0113 69.5818 45.8872 69.3629 45.8872H61.4029C61.0276 45.8872 60.7148 45.5923 60.7148 45.2043V43.5282C60.7148 43.1557 61.012 42.8453 61.4029 42.8453H88.5355C88.5355 42.8453 88.5823 42.8453 88.5982 42.8453C88.9736 42.8453 89.2863 43.1402 89.2863 43.5282V45.2043C89.2863 45.5768 88.9895 45.8872 88.5982 45.8872H80.6228C80.3879 45.8872 80.2006 45.9958 80.1061 46.1975C79.9974 46.3993 80.0125 46.6166 80.1379 46.7873L85.3609 54.4849C85.4863 54.6867 85.5172 54.9506 85.3926 55.1833C85.2672 55.4161 85.0323 55.5558 84.7823 55.5558H82.7498C82.5148 55.5558 82.3117 55.4472 82.1863 55.261L76.0875 46.2596C75.931 46.0268 75.6808 45.9026 75.3994 45.9026H74.633C74.3516 45.9026 74.1014 46.0423 73.945 46.2596L73.9293 46.2286Z" fill="white"/>
<path d="M55.1578 83.3338C55.1578 77.1973 50.1832 72.2227 44.0467 72.2227C37.9102 72.2227 32.9355 77.1973 32.9355 83.3338C32.9355 89.4703 37.9102 94.4449 44.0467 94.4449C50.1832 94.4449 55.1578 89.4703 55.1578 83.3338Z" fill="black"/>
<path d="M41.27 83.3329C42.8041 83.3329 44.0477 82.0892 44.0477 80.5551C44.0477 79.021 42.8041 77.7773 41.27 77.7773C39.7358 77.7773 38.4922 79.021 38.4922 80.5551C38.4922 82.0892 39.7358 83.3329 41.27 83.3329Z" fill="#D9D9D9"/>
<path d="M82.8761 82.9365H67.2157C66.8312 82.9365 66.4998 83.2103 66.4536 83.5921C65.9869 87.4476 66.9961 94.0476 74.4878 94.0476C81.9261 94.0476 83.6714 87.5405 83.6428 83.6746C83.6404 83.2587 83.292 82.9365 82.8761 82.9365Z" fill="#0C0C0D" fill-opacity="0.87"/>
<g filter="url(#filter0_i_219_10153)">
<path d="M76.8247 87.3018C75.6583 87.3018 74.4175 90.0922 73.6148 92.4684C73.2811 93.4565 74.0393 94.4192 75.0743 94.2914C76.3557 94.1335 77.693 93.8787 78.3485 93.651C79.4914 93.2541 82.539 89.9557 82.539 89.2859V88.0954C82.539 87.8891 82.3247 87.6724 82.1056 87.5089C81.9001 87.3565 81.6445 87.3018 81.389 87.3018H76.8247Z" fill="url(#paint2_linear_219_10153)"/>
</g>
<path d="M82.8761 82.9365H67.2157C66.8312 82.9365 66.4998 83.2103 66.4536 83.5921C65.9869 87.4476 66.9961 94.0476 74.4878 94.0476C81.9261 94.0476 83.6714 87.5405 83.6428 83.6746C83.6404 83.2587 83.292 82.9365 82.8761 82.9365Z" stroke="black"/>
<path d="M117.064 83.3338C117.064 77.1973 112.089 72.2227 105.953 72.2227C99.8164 72.2227 94.8418 77.1973 94.8418 83.3338C94.8418 89.4703 99.8164 94.4449 105.953 94.4449C112.089 94.4449 117.064 89.4703 117.064 83.3338Z" fill="black"/>
<path d="M103.174 83.3329C104.708 83.3329 105.952 82.0892 105.952 80.5551C105.952 79.021 104.708 77.7773 103.174 77.7773C101.64 77.7773 100.396 79.021 100.396 80.5551C100.396 82.0892 101.64 83.3329 103.174 83.3329Z" fill="#D9D9D9"/>
</g>
<defs>
<filter id="filter0_i_219_10153" x="73.5352" y="87.3018" width="9.00391" height="7.60098" filterUnits="userSpaceOnUse" color-interpolation-filters="sRGB">
<feFlood flood-opacity="0" result="BackgroundImageFix"/>
<feBlend mode="normal" in="SourceGraphic" in2="BackgroundImageFix" result="shape"/>
<feColorMatrix in="SourceAlpha" type="matrix" values="0 0 0 0 0 0 0 0 0 0 0 0 0 0 0 0 0 0 127 0" result="hardAlpha"/>
<feOffset dy="1"/>
<feGaussianBlur stdDeviation="0.3"/>
<feComposite in2="hardAlpha" operator="arithmetic" k2="-1" k3="1"/>
<feColorMatrix type="matrix" values="0 0 0 0 0 0 0 0 0 0 0 0 0 0 0 0 0 0 0.26 0"/>
<feBlend mode="normal" in2="shape" result="effect1_innerShadow_219_10153"/>
</filter>
<linearGradient id="paint0_linear_219_10153" x1="74.9999" y1="-6.4339" x2="74.9999" y2="150" gradientUnits="userSpaceOnUse">
<stop stop-color="#303030"/>
<stop offset="1" stop-color="#141414"/>
</linearGradient>
<radialGradient id="paint1_radial_219_10153" cx="0" cy="0" r="1" gradientUnits="userSpaceOnUse" gradientTransform="translate(75 75) rotate(90) scale(75)">
<stop stop-color="#FFFDC9" stop-opacity="0.4"/>
<stop offset="1" stop-color="white" stop-opacity="0"/>
</radialGradient>
<linearGradient id="paint2_linear_219_10153" x1="77.7771" y1="87.3018" x2="77.7771" y2="94.4446" gradientUnits="userSpaceOnUse">
<stop stop-color="#FC6432"/>
<stop offset="0.341346" stop-color="#FFAD65"/>
</linearGradient>
<clipPath id="clip0_219_10153">
<rect width="150" height="150" fill="white"/>
</clipPath>
</defs>
</svg>
