<svg width="62" height="62" viewBox="0 0 62 62" fill="none" xmlns="http://www.w3.org/2000/svg">
<rect width="62" height="62" rx="4" fill="#EAE8E6"/>
<path d="M39.0412 39C38.0515 39 37.0619 38.5077 36.3196 37.7692L33.5979 34.3231H27.9072L26.4227 36.7846C25.6804 38.0154 24.4433 39 22.9588 39C20.732 39 19 37.2769 19 35.0615V34.5692V34.0769L19.9897 27.6769C20.2371 24.9692 22.2165 23 24.9381 23C26.1753 23 27.6598 23.4923 28.4021 24.4769C29.3918 24.4769 31.866 24.2308 33.3505 24.4769C34.3402 23.4923 35.5773 23.2462 36.8144 23.2462C38.7938 23.2462 40.5258 24.4769 41.268 26.4462V26.9385L42.7526 33.8308C42.7526 34.0769 43 34.5692 43 35.0615C43 37.0308 41.268 39 39.0412 39Z" fill="url(#paint0_linear_219_11318)" fill-opacity="0.8"/>
<path d="M39.2174 29.75C38.6957 29.75 38.4348 29.25 38.4348 29C38.4348 28.75 38.6957 28.25 39.2174 28.25C39.7391 28.25 40 28.75 40 29C40 29.25 39.7391 29.75 39.2174 29.75ZM34.7826 29.75C34.2609 29.75 34 29.25 34 29C34 28.75 34.2609 28.25 34.7826 28.25C35.3043 28.25 35.5652 28.75 35.5652 29C35.5652 29.25 35.3043 29.75 34.7826 29.75ZM36.8696 32C36.6087 32 36.087 31.75 36.087 31.25C36.087 30.75 36.3478 30.5 36.8696 30.5C37.3913 30.5 37.6522 31 37.6522 31.25C37.6522 31.5 37.3913 32 36.8696 32ZM36.8696 27.5C36.6087 27.5 36.087 27.25 36.087 26.75C36.087 26.25 36.3478 26 36.8696 26C37.3913 26 37.6522 26.5 37.6522 26.75C37.6522 27 37.3913 27.5 36.8696 27.5ZM24.087 28H22V29.25H24.087V31.25H25.3913V29.25H27.4783V28H25.3913V26H24.087V28Z" fill="white"/>
<path d="M58.8994 58.8994H3.09961V3.09961H58.8994V58.8994ZM4.36914 57.6299H57.6299V4.36914H4.36914V57.6299ZM53.9131 53.9248H8.07324V8.08496H53.9131V53.9248ZM9.34277 52.6553H52.6436V9.35449H9.34277V52.6553ZM48.8516 48.8467H13.1592V13.1543H48.8516V48.8467ZM14.4287 47.5771H47.582V14.4238H14.4287V47.5771Z" fill="url(#paint1_radial_219_11318)"/>
<defs>
<linearGradient id="paint0_linear_219_11318" x1="31" y1="39" x2="31" y2="27.5109" gradientUnits="userSpaceOnUse">
<stop offset="0.15" stop-color="#FC6432"/>
<stop offset="0.55" stop-color="#FD9D41"/>
<stop offset="1" stop-color="#BFBDBA"/>
</linearGradient>
<radialGradient id="paint1_radial_219_11318" cx="0" cy="0" r="1" gradientUnits="userSpaceOnUse" gradientTransform="translate(30.9995 30.9995) rotate(90) scale(27.8999)">
<stop offset="0.668269" stop-color="#FF9835"/>
<stop offset="1" stop-color="#D5D3D1"/>
</radialGradient>
</defs>
</svg>
