<svg width="82" height="83" viewBox="0 0 82 83" fill="none" xmlns="http://www.w3.org/2000/svg">
<g clip-path="url(#clip0_358_8748)">
<path d="M64.2116 0H17.7884C7.96412 0 0 8.06124 0 18.0053V64.9947C0 74.9388 7.96412 83 17.7884 83H64.2116C74.0359 83 82 74.9388 82 64.9947V18.0053C82 8.06124 74.0359 0 64.2116 0Z" fill="url(#paint0_linear_358_8748)"/>
<path d="M64.2116 0.5H17.7884C7.96412 0.5 0 8.46412 0 18.2884V64.7116C0 74.5359 7.96412 82.5 17.7884 82.5H64.2116C74.0359 82.5 82 74.5359 82 64.7116V18.2884C82 8.46412 74.0359 0.5 64.2116 0.5Z" fill="url(#paint1_radial_358_8748)"/>
<path fill-rule="evenodd" clip-rule="evenodd" d="M43.7837 20.1099C43.7239 20.0068 43.7325 19.878 43.8006 19.775L46.6559 15.5242C46.7331 15.404 46.7418 15.258 46.6732 15.1377C46.6047 15.0089 46.4767 14.9402 46.3396 14.9402H45.2285C45.1087 14.9402 44.989 15.0003 44.9122 15.112L41.578 20.0927C41.4925 20.2215 41.3557 20.2902 41.2019 20.2902H40.7829C40.6291 20.2902 40.4923 20.2129 40.4068 20.0927L37.0897 15.1034C37.0214 14.9918 36.8931 14.9316 36.7735 14.9316H35.6621C35.5253 14.9316 35.3885 15.0089 35.3287 15.1377C35.2603 15.2665 35.2774 15.4126 35.3458 15.5242L38.2011 19.7835C38.2695 19.878 38.2781 20.0068 38.2182 20.1099C38.1584 20.2215 38.0558 20.2816 37.9361 20.2816H33.5676C33.3538 20.2816 33.1914 20.4534 33.1914 20.6595V21.5869C33.1914 21.8016 33.3624 21.9648 33.5676 21.9648H48.4343C48.6482 21.9648 48.8105 21.793 48.8105 21.5869V20.6595C48.8105 20.462 48.6651 20.3074 48.4772 20.2816C48.4599 20.2816 48.443 20.2816 48.4256 20.2816H44.0657C43.946 20.2816 43.8349 20.2215 43.7837 20.1099ZM40.4153 25.5801L37.0812 30.5608C37.0128 30.6725 36.8846 30.7326 36.7649 30.7326H35.6535C35.5167 30.7326 35.3885 30.6553 35.3201 30.5351C35.2517 30.4148 35.2603 30.2602 35.3372 30.1486L38.184 25.8978C38.2524 25.7948 38.261 25.6746 38.2011 25.5629C38.1413 25.4599 38.0387 25.3912 37.919 25.3912H33.5676C33.3624 25.3912 33.1914 25.228 33.1914 25.0133V24.0859C33.1914 23.8798 33.3538 23.708 33.5676 23.708H48.4C48.4 23.708 48.4256 23.708 48.4343 23.708C48.6395 23.708 48.8105 23.8712 48.8105 24.0859V25.0133C48.8105 25.2194 48.6482 25.3912 48.4343 25.3912H44.0744C43.946 25.3912 43.8436 25.4513 43.792 25.5629C43.7325 25.6746 43.7408 25.7948 43.8093 25.8893L46.6646 30.1486C46.7331 30.2602 46.75 30.4063 46.6819 30.5351C46.6134 30.6639 46.485 30.7412 46.3483 30.7412H45.2372C45.1087 30.7412 44.9977 30.681 44.9291 30.578L41.5951 25.5973C41.5096 25.4685 41.3728 25.3997 41.2189 25.3997H40.8C40.6462 25.3997 40.5094 25.477 40.4239 25.5973L40.4153 25.5801Z" fill="white"/>
<path d="M30.154 46.111C30.154 42.7155 27.4346 39.9629 24.0799 39.9629C20.7253 39.9629 18.0059 42.7155 18.0059 46.111C18.0059 49.5066 20.7253 52.2592 24.0799 52.2592C27.4346 52.2592 30.154 49.5066 30.154 46.111Z" fill="black"/>
<path d="M22.5615 46.1112C23.4001 46.1112 24.08 45.423 24.08 44.5741C24.08 43.7253 23.4001 43.0371 22.5615 43.0371C21.7228 43.0371 21.043 43.7253 21.043 44.5741C21.043 45.423 21.7228 46.1112 22.5615 46.1112Z" fill="#D9D9D9"/>
<path d="M45.3056 45.8916H36.7446C36.5344 45.8916 36.3532 46.0431 36.328 46.2543C36.0729 48.3877 36.6246 52.0397 40.72 52.0397C44.7863 52.0397 45.7404 48.4391 45.7247 46.3C45.7234 46.0699 45.533 45.8916 45.3056 45.8916Z" fill="#0C0C0D" fill-opacity="0.87"/>
<g filter="url(#filter0_i_358_8748)">
<path d="M41.9975 48.3066C41.3599 48.3066 40.6815 49.8507 40.2428 51.1655C40.0603 51.7123 40.4748 52.245 41.0406 52.1743C41.7411 52.0869 42.4722 51.9459 42.8305 51.8199C43.4553 51.6003 45.1213 49.7752 45.1213 49.4045V48.7458C45.1213 48.6316 45.0042 48.5117 44.8844 48.4213C44.772 48.3369 44.6323 48.3066 44.4926 48.3066H41.9975Z" fill="url(#paint2_linear_358_8748)"/>
</g>
<path d="M45.3056 45.8916H36.7446C36.5344 45.8916 36.3532 46.0431 36.328 46.2543C36.0729 48.3877 36.6246 52.0397 40.72 52.0397C44.7863 52.0397 45.7404 48.4391 45.7247 46.3C45.7234 46.0699 45.533 45.8916 45.3056 45.8916Z" stroke="black"/>
<path d="M63.9939 46.111C63.9939 42.7155 61.2744 39.9629 57.9198 39.9629C54.5652 39.9629 51.8457 42.7155 51.8457 46.111C51.8457 49.5066 54.5652 52.2592 57.9198 52.2592C61.2744 52.2592 63.9939 49.5066 63.9939 46.111Z" fill="black"/>
<path d="M56.4013 46.1112C57.24 46.1112 57.9198 45.423 57.9198 44.5741C57.9198 43.7253 57.24 43.0371 56.4013 43.0371C55.5627 43.0371 54.8828 43.7253 54.8828 44.5741C54.8828 45.423 55.5627 46.1112 56.4013 46.1112Z" fill="#D9D9D9"/>
</g>
<defs>
<filter id="filter0_i_358_8748" x="40.1992" y="48.3066" width="4.92188" height="4.47402" filterUnits="userSpaceOnUse" color-interpolation-filters="sRGB">
<feFlood flood-opacity="0" result="BackgroundImageFix"/>
<feBlend mode="normal" in="SourceGraphic" in2="BackgroundImageFix" result="shape"/>
<feColorMatrix in="SourceAlpha" type="matrix" values="0 0 0 0 0 0 0 0 0 0 0 0 0 0 0 0 0 0 127 0" result="hardAlpha"/>
<feOffset dy="1"/>
<feGaussianBlur stdDeviation="0.3"/>
<feComposite in2="hardAlpha" operator="arithmetic" k2="-1" k3="1"/>
<feColorMatrix type="matrix" values="0 0 0 0 0 0 0 0 0 0 0 0 0 0 0 0 0 0 0.26 0"/>
<feBlend mode="normal" in2="shape" result="effect1_innerShadow_358_8748"/>
</filter>
<linearGradient id="paint0_linear_358_8748" x1="41" y1="-3.56009" x2="41" y2="83" gradientUnits="userSpaceOnUse">
<stop stop-color="#303030"/>
<stop offset="1" stop-color="#141414"/>
</linearGradient>
<radialGradient id="paint1_radial_358_8748" cx="0" cy="0" r="1" gradientUnits="userSpaceOnUse" gradientTransform="translate(41 41.5) rotate(90) scale(41)">
<stop stop-color="#FFFDC9" stop-opacity="0.4"/>
<stop offset="1" stop-color="white" stop-opacity="0"/>
</radialGradient>
<linearGradient id="paint2_linear_358_8748" x1="42.5181" y1="48.3066" x2="42.5181" y2="52.259" gradientUnits="userSpaceOnUse">
<stop stop-color="#FC6432"/>
<stop offset="0.341346" stop-color="#FFAD65"/>
</linearGradient>
<clipPath id="clip0_358_8748">
<rect width="82" height="83" fill="white"/>
</clipPath>
</defs>
</svg>
