<svg width="82" height="82" viewBox="0 0 82 82" fill="none" xmlns="http://www.w3.org/2000/svg">
<g clip-path="url(#clip0_224_10295)">
<path d="M63.9091 0.386719H17.7046C7.9266 0.386719 0 8.31332 0 18.0913V64.2958C0 74.0738 7.9266 82.0004 17.7046 82.0004H63.9091C73.6871 82.0004 81.6137 74.0738 81.6137 64.2958V18.0913C81.6137 8.31332 73.6871 0.386719 63.9091 0.386719Z" fill="url(#paint0_linear_224_10295)"/>
<path d="M63.9091 0H17.7046C7.9266 0 0 7.9266 0 17.7046V63.9091C0 73.6871 7.9266 81.6137 17.7046 81.6137H63.9091C73.6871 81.6137 81.6137 73.6871 81.6137 63.9091V17.7046C81.6137 7.9266 73.6871 0 63.9091 0Z" fill="url(#paint1_radial_224_10295)"/>
<path fill-rule="evenodd" clip-rule="evenodd" d="M43.2305 21.8449C43.1783 21.7563 43.1859 21.6454 43.2452 21.5568L45.7318 17.8995C45.799 17.796 45.8066 17.6704 45.7469 17.567C45.6872 17.4561 45.5757 17.3971 45.4563 17.3971H44.4887C44.3844 17.3971 44.2801 17.4487 44.2132 17.5448L41.3095 21.8302C41.2351 21.941 41.116 22.0001 40.982 22.0001H40.6171C40.4832 22.0001 40.364 21.9336 40.2895 21.8302L37.4008 17.5374C37.3413 17.4414 37.2296 17.3896 37.1254 17.3896H36.1575C36.0384 17.3896 35.9192 17.4561 35.8671 17.567C35.8076 17.6778 35.8225 17.8034 35.882 17.8995L38.3687 21.5642C38.4283 21.6454 38.4357 21.7563 38.3836 21.8449C38.3315 21.941 38.2421 21.9927 38.1379 21.9927H34.3334C34.1473 21.9927 34.0059 22.1405 34.0059 22.3178V23.1158C34.0059 23.3005 34.1548 23.4408 34.3334 23.4408H47.2806C47.4668 23.4408 47.6081 23.2931 47.6081 23.1158V22.3178C47.6081 22.1479 47.4816 22.0149 47.318 21.9927C47.3028 21.9927 47.2881 21.9927 47.273 21.9927H43.4761C43.3718 21.9927 43.2751 21.941 43.2305 21.8449ZM40.3008 26.5589C40.2991 26.5556 40.2944 26.5553 40.2923 26.5584L37.3934 30.8368C37.3338 30.9328 37.2222 30.9845 37.1179 30.9845H36.1501C36.0309 30.9845 35.9192 30.9181 35.8597 30.8146C35.8002 30.7112 35.8076 30.5782 35.8746 30.4821L38.3538 26.8248C38.4134 26.7362 38.4208 26.6327 38.3687 26.5367C38.3166 26.448 38.2273 26.3889 38.123 26.3889H34.3334C34.1548 26.3889 34.0059 26.2485 34.0059 26.0638V25.2658C34.0059 25.0885 34.1473 24.9407 34.3334 24.9407H47.2507C47.2507 24.9407 47.273 24.9407 47.2806 24.9407C47.4593 24.9407 47.6081 25.0811 47.6081 25.2658V26.0638C47.6081 26.2411 47.4668 26.3889 47.2806 26.3889H43.4836C43.3718 26.3889 43.2826 26.4406 43.2376 26.5367C43.1859 26.6327 43.1931 26.7362 43.2528 26.8174L45.7393 30.4821C45.799 30.5782 45.8138 30.7038 45.7545 30.8146C45.6948 30.9254 45.5829 30.9919 45.4639 30.9919H44.4962C44.3844 30.9919 44.2877 30.9402 44.228 30.8516L41.3245 26.5662C41.25 26.4554 41.1308 26.3962 40.9969 26.3962H40.632C40.5009 26.3962 40.384 26.4599 40.3093 26.5596C40.3071 26.5626 40.3025 26.5622 40.3008 26.5589Z" fill="white"/>
<path d="M30.0108 45.7281C30.0108 42.3893 27.3042 39.6826 23.9654 39.6826C20.6266 39.6826 17.9199 42.3893 17.9199 45.7281C17.9199 49.0669 20.6266 51.7735 23.9654 51.7735C27.3042 51.7735 30.0108 49.0669 30.0108 45.7281Z" fill="black"/>
<path d="M22.4547 45.7268C23.2894 45.7268 23.9661 45.0502 23.9661 44.2155C23.9661 43.3808 23.2894 42.7041 22.4547 42.7041C21.62 42.7041 20.9434 43.3808 20.9434 44.2155C20.9434 45.0502 21.62 45.7268 22.4547 45.7268Z" fill="#D9D9D9"/>
<path d="M45.0912 45.5117H36.5705C36.3613 45.5117 36.181 45.6607 36.1558 45.8684C35.9019 47.9662 36.451 51.5572 40.5272 51.5572C44.5743 51.5572 45.5239 48.0167 45.5083 45.9133C45.507 45.687 45.3175 45.5117 45.0912 45.5117Z" fill="#0C0C0D" fill-opacity="0.87"/>
<g filter="url(#filter0_i_224_10295)">
<path d="M41.7996 47.8857C41.1649 47.8857 40.4898 49.404 40.0531 50.6969C39.8715 51.2345 40.2841 51.7583 40.8472 51.6888C41.5444 51.6028 42.272 51.4642 42.6287 51.3403C43.2505 51.1244 44.9087 49.3297 44.9087 48.9653V48.3176C44.9087 48.2053 44.7921 48.0874 44.6729 47.9984C44.5611 47.9155 44.422 47.8857 44.283 47.8857H41.7996Z" fill="url(#paint2_linear_224_10295)"/>
</g>
<path d="M45.0912 45.5117H36.5705C36.3613 45.5117 36.181 45.6607 36.1558 45.8684C35.9019 47.9662 36.451 51.5572 40.5272 51.5572C44.5743 51.5572 45.5239 48.0167 45.5083 45.9133C45.507 45.687 45.3175 45.5117 45.0912 45.5117Z" stroke="black"/>
<path d="M63.6925 45.7281C63.6925 42.3893 60.9858 39.6826 57.647 39.6826C54.3082 39.6826 51.6016 42.3893 51.6016 45.7281C51.6016 49.0669 54.3082 51.7735 57.647 51.7735C60.9858 51.7735 63.6925 49.0669 63.6925 45.7281Z" fill="black"/>
<path d="M56.1383 45.7268C56.973 45.7268 57.6497 45.0502 57.6497 44.2155C57.6497 43.3808 56.973 42.7041 56.1383 42.7041C55.3036 42.7041 54.627 43.3808 54.627 44.2155C54.627 45.0502 55.3036 45.7268 56.1383 45.7268Z" fill="#D9D9D9"/>
</g>
<defs>
<filter id="filter0_i_224_10295" x="40.0098" y="47.8857" width="4.89844" height="4.40957" filterUnits="userSpaceOnUse" color-interpolation-filters="sRGB">
<feFlood flood-opacity="0" result="BackgroundImageFix"/>
<feBlend mode="normal" in="SourceGraphic" in2="BackgroundImageFix" result="shape"/>
<feColorMatrix in="SourceAlpha" type="matrix" values="0 0 0 0 0 0 0 0 0 0 0 0 0 0 0 0 0 0 127 0" result="hardAlpha"/>
<feOffset dy="1"/>
<feGaussianBlur stdDeviation="0.3"/>
<feComposite in2="hardAlpha" operator="arithmetic" k2="-1" k3="1"/>
<feColorMatrix type="matrix" values="0 0 0 0 0 0 0 0 0 0 0 0 0 0 0 0 0 0 0.26 0"/>
<feBlend mode="normal" in2="shape" result="effect1_innerShadow_224_10295"/>
</filter>
<linearGradient id="paint0_linear_224_10295" x1="40.8068" y1="-3.11391" x2="40.8068" y2="82.0004" gradientUnits="userSpaceOnUse">
<stop stop-color="#FD9D41"/>
<stop offset="1" stop-color="#FC6432"/>
</linearGradient>
<radialGradient id="paint1_radial_224_10295" cx="0" cy="0" r="1" gradientUnits="userSpaceOnUse" gradientTransform="translate(40.8068 40.8068) rotate(90) scale(40.8068)">
<stop stop-color="#FFFDC9" stop-opacity="0.4"/>
<stop offset="1" stop-color="white" stop-opacity="0"/>
</radialGradient>
<linearGradient id="paint2_linear_224_10295" x1="42.3178" y1="47.8857" x2="42.3178" y2="51.7721" gradientUnits="userSpaceOnUse">
<stop stop-color="#FC6432"/>
<stop offset="0.341346" stop-color="#FFAD65"/>
</linearGradient>
<clipPath id="clip0_224_10295">
<rect width="81.6137" height="82" fill="white"/>
</clipPath>
</defs>
</svg>
