<svg width="82" height="82" viewBox="0 0 82 82" fill="none" xmlns="http://www.w3.org/2000/svg">
<g clip-path="url(#clip0_358_8760)">
<path d="M64.2116 0H17.7884C7.96412 0 0 8.0493 0 17.9786V64.0214C0 73.9507 7.96412 82 17.7884 82H64.2116C74.0359 82 82 73.9507 82 64.0214V17.9786C82 8.0493 74.0359 0 64.2116 0Z" fill="url(#paint0_linear_358_8760)"/>
<path d="M64.2116 0H17.7884C7.96412 0 0 8.0493 0 17.9786V64.0214C0 73.9507 7.96412 82 17.7884 82H64.2116C74.0359 82 82 73.9507 82 64.0214V17.9786C82 8.0493 74.0359 0 64.2116 0Z" fill="url(#paint1_radial_358_8760)"/>
<path fill-rule="evenodd" clip-rule="evenodd" d="M43.7837 20.0797C43.7239 19.9769 43.7325 19.8482 43.8006 19.7453L46.6559 15.5009C46.7331 15.3808 46.7418 15.235 46.6732 15.115C46.6047 14.9864 46.4767 14.9178 46.3396 14.9178H45.2285C45.1087 14.9178 44.989 14.9778 44.9122 15.0892L41.578 20.0626C41.4925 20.1912 41.3557 20.2598 41.2019 20.2598H40.7829C40.6291 20.2598 40.4923 20.1827 40.4068 20.0626L37.0897 15.0807C37.0214 14.9692 36.8931 14.9092 36.7735 14.9092H35.6621C35.5253 14.9092 35.3885 14.9864 35.3287 15.115C35.2603 15.2436 35.2774 15.3894 35.3458 15.5009L38.2011 19.7539C38.2695 19.8482 38.2781 19.9769 38.2182 20.0797C38.1584 20.1912 38.0558 20.2512 37.9361 20.2512H33.5676C33.3538 20.2512 33.1914 20.4227 33.1914 20.6285V21.5546C33.1914 21.769 33.3624 21.9319 33.5676 21.9319H48.4343C48.6482 21.9319 48.8105 21.7604 48.8105 21.5546V20.6285C48.8105 20.4313 48.6651 20.277 48.4772 20.2512C48.4599 20.2512 48.443 20.2512 48.4256 20.2512H44.0657C43.946 20.2512 43.8349 20.1912 43.7837 20.0797ZM40.4153 25.5419L37.0812 30.5152C37.0128 30.6267 36.8846 30.6867 36.7649 30.6867H35.6535C35.5167 30.6867 35.3885 30.6095 35.3201 30.4895C35.2517 30.3694 35.2603 30.2151 35.3372 30.1036L38.184 25.8591C38.2524 25.7562 38.261 25.6362 38.2011 25.5247C38.1413 25.4218 38.0387 25.3532 37.919 25.3532H33.5676C33.3624 25.3532 33.1914 25.1903 33.1914 24.9759V24.0499C33.1914 23.8441 33.3538 23.6726 33.5676 23.6726H48.4C48.4 23.6726 48.4256 23.6726 48.4343 23.6726C48.6395 23.6726 48.8105 23.8355 48.8105 24.0499V24.9759C48.8105 25.1817 48.6482 25.3532 48.4343 25.3532H44.0744C43.946 25.3532 43.8436 25.4132 43.792 25.5247C43.7325 25.6362 43.7408 25.7562 43.8093 25.8506L46.6646 30.1036C46.7331 30.2151 46.75 30.3609 46.6819 30.4895C46.6134 30.6181 46.485 30.6953 46.3483 30.6953H45.2372C45.1087 30.6953 44.9977 30.6352 44.9291 30.5324L41.5951 25.559C41.5096 25.4304 41.3728 25.3618 41.2189 25.3618H40.8C40.6462 25.3618 40.5094 25.4389 40.4239 25.559L40.4153 25.5419Z" fill="white"/>
<path d="M30.154 46.0424C30.154 42.6519 27.4346 39.9033 24.0799 39.9033C20.7253 39.9033 18.0059 42.6519 18.0059 46.0424C18.0059 49.4329 20.7253 52.1814 24.0799 52.1814C27.4346 52.1814 30.154 49.4329 30.154 46.0424Z" fill="black"/>
<path d="M22.5615 46.0432C23.4001 46.0432 24.08 45.356 24.08 44.5084C24.08 43.6608 23.4001 42.9736 22.5615 42.9736C21.7228 42.9736 21.043 43.6608 21.043 44.5084C21.043 45.356 21.7228 46.0432 22.5615 46.0432Z" fill="#D9D9D9"/>
<path d="M45.3056 45.8232H36.7446C36.5344 45.8232 36.3532 45.9745 36.328 46.1854C36.0729 48.3157 36.6246 51.9623 40.72 51.9623C44.7863 51.9623 45.7404 48.367 45.7247 46.231C45.7234 46.0013 45.533 45.8232 45.3056 45.8232Z" fill="#0C0C0D" fill-opacity="0.87"/>
<g filter="url(#filter0_i_358_8760)">
<path d="M41.9975 48.2354C41.3599 48.2354 40.6815 49.7771 40.2428 51.09C40.0603 51.6359 40.4748 52.1678 41.0406 52.0972C41.7411 52.01 42.4722 51.8692 42.8305 51.7434C43.4553 51.5241 45.1213 49.7017 45.1213 49.3316V48.6739C45.1213 48.5598 45.0042 48.4401 44.8844 48.3498C44.772 48.2656 44.6323 48.2354 44.4926 48.2354H41.9975Z" fill="url(#paint2_linear_358_8760)"/>
</g>
<path d="M45.3056 45.8232H36.7446C36.5344 45.8232 36.3532 45.9745 36.328 46.1854C36.0729 48.3157 36.6246 51.9623 40.72 51.9623C44.7863 51.9623 45.7404 48.367 45.7247 46.231C45.7234 46.0013 45.533 45.8232 45.3056 45.8232Z" stroke="black"/>
<path d="M63.9939 46.0424C63.9939 42.6519 61.2744 39.9033 57.9198 39.9033C54.5652 39.9033 51.8457 42.6519 51.8457 46.0424C51.8457 49.4329 54.5652 52.1814 57.9198 52.1814C61.2744 52.1814 63.9939 49.4329 63.9939 46.0424Z" fill="black"/>
<path d="M56.4013 46.0432C57.24 46.0432 57.9198 45.356 57.9198 44.5084C57.9198 43.6608 57.24 42.9736 56.4013 42.9736C55.5627 42.9736 54.8828 43.6608 54.8828 44.5084C54.8828 45.356 55.5627 46.0432 56.4013 46.0432Z" fill="#D9D9D9"/>
</g>
<defs>
<filter id="filter0_i_358_8760" x="40.1992" y="48.2354" width="4.92188" height="4.46816" filterUnits="userSpaceOnUse" color-interpolation-filters="sRGB">
<feFlood flood-opacity="0" result="BackgroundImageFix"/>
<feBlend mode="normal" in="SourceGraphic" in2="BackgroundImageFix" result="shape"/>
<feColorMatrix in="SourceAlpha" type="matrix" values="0 0 0 0 0 0 0 0 0 0 0 0 0 0 0 0 0 0 127 0" result="hardAlpha"/>
<feOffset dy="1"/>
<feGaussianBlur stdDeviation="0.3"/>
<feComposite in2="hardAlpha" operator="arithmetic" k2="-1" k3="1"/>
<feColorMatrix type="matrix" values="0 0 0 0 0 0 0 0 0 0 0 0 0 0 0 0 0 0 0.26 0"/>
<feBlend mode="normal" in2="shape" result="effect1_innerShadow_358_8760"/>
</filter>
<linearGradient id="paint0_linear_358_8760" x1="41" y1="-3.5172" x2="41" y2="82" gradientUnits="userSpaceOnUse">
<stop stop-color="#9985FF"/>
<stop offset="1" stop-color="#765BFF"/>
</linearGradient>
<radialGradient id="paint1_radial_358_8760" cx="0" cy="0" r="1" gradientUnits="userSpaceOnUse" gradientTransform="translate(41 41) rotate(90) scale(41)">
<stop stop-color="#FFFDC9" stop-opacity="0.4"/>
<stop offset="1" stop-color="white" stop-opacity="0"/>
</radialGradient>
<linearGradient id="paint2_linear_358_8760" x1="42.5181" y1="48.2354" x2="42.5181" y2="52.1819" gradientUnits="userSpaceOnUse">
<stop stop-color="#FC6432"/>
<stop offset="0.341346" stop-color="#FFAD65"/>
</linearGradient>
<clipPath id="clip0_358_8760">
<rect width="82" height="82" fill="white"/>
</clipPath>
</defs>
</svg>
